<svg width="19" height="18" viewBox="0 0 19 18" fill="none" xmlns="http://www.w3.org/2000/svg">
<g filter="url(#filter0_d_0_65)">
<path fill-rule="evenodd" clip-rule="evenodd" d="M12.8649 9.1664C13.7779 9.52626 14.3794 10.4064 14.3831 11.3878C14.381 12.2088 13.9589 12.9716 13.2644 13.4094C13.4723 13.7661 13.5825 14.1712 13.584 14.584C13.5914 15.5429 13.0268 16.4139 12.1485 16.7985C11.2701 17.1831 10.2471 17.0073 9.54753 16.3516C8.84795 15.6959 8.60643 14.6863 8.93348 13.785H7.0477C7.40887 14.78 7.07458 15.8942 6.22528 16.5261C5.37597 17.158 4.21274 17.158 3.36344 16.5261C2.51413 15.8942 2.17985 14.78 2.54101 13.785H1.59812C1.15681 13.785 0.799059 13.4272 0.799059 12.9859C0.799059 12.5446 1.15681 12.1868 1.59812 12.1868H11.9859C12.4272 12.1868 12.785 11.8291 12.785 11.3878C12.785 10.9465 12.4272 10.5887 11.9859 10.5887H3.76357C3.39211 10.6015 3.06093 10.3564 2.96451 9.99742L0.982843 2.59813H0V1.00002H1.59812C1.96072 0.998424 2.27893 1.24119 2.37321 1.59132L2.6369 2.59813H13.584C13.8259 2.59095 14.0581 2.69379 14.2153 2.87781C14.3692 3.07435 14.4224 3.33151 14.3591 3.57299L12.8649 9.1664ZM4.39483 8.99061H11.2587L12.5452 4.19625H3.06839L4.39483 8.99061ZM4.79436 15.3831C4.35305 15.3831 3.9953 15.0253 3.9953 14.584C3.9953 14.1427 4.35305 13.785 4.79436 13.785C5.23566 13.785 5.59342 14.1427 5.59342 14.584C5.59342 15.0253 5.23566 15.3831 4.79436 15.3831ZM10.3878 14.584C10.3878 15.0253 10.7455 15.3831 11.1868 15.3831C11.6281 15.3831 11.9859 15.0253 11.9859 14.584C11.9859 14.1427 11.6281 13.785 11.1868 13.785C10.7455 13.785 10.3878 14.1427 10.3878 14.584Z" fill="white"/>
<path d="M14.3831 11.3878L14.8831 11.3891L14.8831 11.3859L14.3831 11.3878ZM12.8649 9.1664L12.3818 9.03736L12.2667 9.4681L12.6815 9.63158L12.8649 9.1664ZM13.2644 13.4094L12.9977 12.9865L12.5892 13.244L12.8324 13.6612L13.2644 13.4094ZM13.584 14.584L13.084 14.5858L13.084 14.5879L13.584 14.584ZM8.93348 13.785L9.4035 13.9555L9.64681 13.285H8.93348V13.785ZM7.0477 13.785V13.285H6.33431L6.5777 13.9556L7.0477 13.785ZM6.22528 16.5261L5.92682 16.1249L5.92682 16.1249L6.22528 16.5261ZM3.36344 16.5261L3.6619 16.1249L3.6619 16.1249L3.36344 16.5261ZM2.54101 13.785L3.01101 13.9556L3.2544 13.285H2.54101V13.785ZM3.76357 10.5887V10.0887H3.75501L3.74645 10.089L3.76357 10.5887ZM2.96451 9.99742L2.48153 10.1268L2.48163 10.1271L2.96451 9.99742ZM0.982843 2.59813L1.46582 2.46878L1.36655 2.09813H0.982843V2.59813ZM0 2.59813H-0.5V3.09813H0V2.59813ZM0 1.00002V0.500015H-0.5V1.00002H0ZM1.59812 1.00002L1.59812 1.50002L1.60031 1.50001L1.59812 1.00002ZM2.37321 1.59132L2.8569 1.46464L2.85601 1.46132L2.37321 1.59132ZM2.6369 2.59813L2.15321 2.72481L2.25098 3.09813H2.6369V2.59813ZM13.584 2.59813V3.09813H13.5914L13.5989 3.09791L13.584 2.59813ZM14.2153 2.87781L14.6089 2.56955L14.6024 2.56114L14.5954 2.55303L14.2153 2.87781ZM14.3591 3.57299L14.8422 3.70203L14.8428 3.69973L14.3591 3.57299ZM11.2587 8.99061V9.49061H11.6423L11.7417 9.12019L11.2587 8.99061ZM4.39483 8.99061L3.91293 9.12393L4.01438 9.49061H4.39483V8.99061ZM12.5452 4.19625L13.0281 4.32584L13.1971 3.69625H12.5452V4.19625ZM3.06839 4.19625V3.69625H2.41127L2.58649 4.32958L3.06839 4.19625ZM14.8831 11.3859C14.8787 10.1998 14.1517 9.13614 13.0482 8.70123L12.6815 9.63158C13.4042 9.91638 13.8802 10.6129 13.8831 11.3896L14.8831 11.3859ZM13.5311 13.8324C14.3704 13.3032 14.8805 12.3813 14.8831 11.3891L13.8831 11.3865C13.8814 12.0362 13.5473 12.6399 12.9977 12.9865L13.5311 13.8324ZM14.084 14.5822C14.0822 14.0815 13.9485 13.5902 13.6964 13.1576L12.8324 13.6612C12.9961 13.942 13.0828 14.2609 13.084 14.5858L14.084 14.5822ZM12.349 17.2565C13.4106 16.7917 14.093 15.739 14.084 14.5801L13.084 14.5879C13.0899 15.3467 12.643 16.0361 11.9479 16.3405L12.349 17.2565ZM9.20559 16.7164C10.0511 17.5089 11.2875 17.7214 12.349 17.2565L11.9479 16.3405C11.2528 16.6449 10.4431 16.5058 9.88947 15.9868L9.20559 16.7164ZM8.46347 13.6144C8.06819 14.7038 8.36009 15.9239 9.20559 16.7164L9.88947 15.9868C9.3358 15.4678 9.14466 14.6689 9.4035 13.9555L8.46347 13.6144ZM7.0477 14.285H8.93348V13.285H7.0477V14.285ZM6.52373 16.9272C7.55019 16.1635 7.9542 14.817 7.5177 13.6144L6.5777 13.9556C6.86354 14.7431 6.59897 15.6248 5.92682 16.1249L6.52373 16.9272ZM3.06498 16.9272C4.09143 17.6909 5.49728 17.6909 6.52373 16.9272L5.92682 16.1249C5.25466 16.625 4.33406 16.625 3.6619 16.1249L3.06498 16.9272ZM2.07101 13.6144C1.63452 14.817 2.03853 16.1635 3.06498 16.9272L3.6619 16.1249C2.98974 15.6248 2.72518 14.7431 3.01101 13.9556L2.07101 13.6144ZM1.59812 14.285H2.54101V13.285H1.59812V14.285ZM0.299059 12.9859C0.299059 13.7034 0.880668 14.285 1.59812 14.285V13.285C1.43295 13.285 1.29906 13.1511 1.29906 12.9859H0.299059ZM1.59812 11.6868C0.880668 11.6868 0.299059 12.2685 0.299059 12.9859H1.29906C1.29906 12.8207 1.43295 12.6868 1.59812 12.6868V11.6868ZM11.9859 11.6868H1.59812V12.6868H11.9859V11.6868ZM12.285 11.3878C12.285 11.553 12.1511 11.6868 11.9859 11.6868V12.6868C12.7033 12.6868 13.285 12.1052 13.285 11.3878H12.285ZM11.9859 11.0887C12.1511 11.0887 12.285 11.2226 12.285 11.3878H13.285C13.285 10.6703 12.7033 10.0887 11.9859 10.0887V11.0887ZM3.76357 11.0887H11.9859V10.0887H3.76357V11.0887ZM2.48163 10.1271C2.63838 10.7107 3.17679 11.1091 3.78069 11.0884L3.74645 10.089C3.60743 10.0938 3.48348 10.0021 3.44739 9.86772L2.48163 10.1271ZM0.499864 2.72748L2.48153 10.1268L3.44749 9.86807L1.46582 2.46878L0.499864 2.72748ZM0 3.09813H0.982843V2.09813H0V3.09813ZM-0.5 1.00002V2.59813H0.5V1.00002H-0.5ZM1.59812 0.500015H0V1.50002H1.59812V0.500015ZM2.85601 1.46132C2.70275 0.8921 2.18541 0.497433 1.59592 0.50002L1.60031 1.50001C1.73602 1.49942 1.85512 1.59027 1.8904 1.72131L2.85601 1.46132ZM3.12058 2.47145L2.85689 1.46464L1.88952 1.718L2.15321 2.72481L3.12058 2.47145ZM13.584 2.09813H2.6369V3.09813H13.584V2.09813ZM14.5954 2.55303C14.3398 2.25387 13.9625 2.08667 13.5692 2.09835L13.5989 3.09791C13.6894 3.09522 13.7763 3.13372 13.8351 3.20259L14.5954 2.55303ZM14.8428 3.69973C14.9456 3.30716 14.8591 2.88907 14.6089 2.56955L13.8216 3.18606C13.8792 3.25962 13.8991 3.35587 13.8754 3.44625L14.8428 3.69973ZM13.3479 9.29545L14.8422 3.70203L13.876 3.44394L12.3818 9.03736L13.3479 9.29545ZM11.2587 8.49061H4.39483V9.49061H11.2587V8.49061ZM12.0623 4.06667L10.7758 8.86103L11.7417 9.12019L13.0281 4.32584L12.0623 4.06667ZM3.06839 4.69625H12.5452V3.69625H3.06839V4.69625ZM4.87672 8.85728L3.55028 4.06293L2.58649 4.32958L3.91293 9.12393L4.87672 8.85728ZM3.4953 14.584C3.4953 15.3015 4.07691 15.8831 4.79436 15.8831V14.8831C4.62919 14.8831 4.4953 14.7492 4.4953 14.584H3.4953ZM4.79436 13.285C4.07691 13.285 3.4953 13.8666 3.4953 14.584H4.4953C4.4953 14.4189 4.62919 14.285 4.79436 14.285V13.285ZM6.09342 14.584C6.09342 13.8666 5.51181 13.285 4.79436 13.285V14.285C4.95952 14.285 5.09342 14.4189 5.09342 14.584H6.09342ZM4.79436 15.8831C5.51181 15.8831 6.09342 15.3015 6.09342 14.584H5.09342C5.09342 14.7492 4.95952 14.8831 4.79436 14.8831V15.8831ZM11.1868 14.8831C11.0217 14.8831 10.8878 14.7492 10.8878 14.584H9.88777C9.88777 15.3015 10.4694 15.8831 11.1868 15.8831V14.8831ZM11.4859 14.584C11.4859 14.7492 11.352 14.8831 11.1868 14.8831V15.8831C11.9043 15.8831 12.4859 15.3015 12.4859 14.584H11.4859ZM11.1868 14.285C11.352 14.285 11.4859 14.4189 11.4859 14.584H12.4859C12.4859 13.8666 11.9043 13.285 11.1868 13.285V14.285ZM10.8878 14.584C10.8878 14.4189 11.0217 14.285 11.1868 14.285V13.285C10.4694 13.285 9.88777 13.8666 9.88777 14.584H10.8878Z" fill="black"/>
</g>
<defs>
<filter id="filter0_d_0_65" x="-4.5" y="0.5" width="23.3853" height="25" filterUnits="userSpaceOnUse" color-interpolation-filters="sRGB">
<feFlood flood-opacity="0" result="BackgroundImageFix"/>
<feColorMatrix in="SourceAlpha" type="matrix" values="0 0 0 0 0 0 0 0 0 0 0 0 0 0 0 0 0 0 127 0" result="hardAlpha"/>
<feOffset dy="4"/>
<feGaussianBlur stdDeviation="2"/>
<feComposite in2="hardAlpha" operator="out"/>
<feColorMatrix type="matrix" values="0 0 0 0 0 0 0 0 0 0 0 0 0 0 0 0 0 0 0.25 0"/>
<feBlend mode="normal" in2="BackgroundImageFix" result="effect1_dropShadow_0_65"/>
<feBlend mode="normal" in="SourceGraphic" in2="effect1_dropShadow_0_65" result="shape"/>
</filter>
</defs>
</svg>
